<svg xmlns="http://www.w3.org/2000/svg" xmlns:xlink="http://www.w3.org/1999/xlink" width="500" zoomAndPan="magnify" viewBox="0 0 375 374.999991" height="500" preserveAspectRatio="xMidYMid meet" version="1.0"><defs><g/><clipPath id="9e289d9206"><path d="M 103.261719 2.632812 L 272 2.632812 L 272 257.632812 L 103.261719 257.632812 Z M 103.261719 2.632812 " clip-rule="nonzero"/></clipPath><clipPath id="c385fcc97a"><path d="M 216.328125 4.4375 C 214.789062 3.300781 212.886719 2.632812 210.839844 2.632812 C 205.738281 2.632812 201.566406 6.796875 201.566406 11.882812 L 201.566406 89.519531 L 187.640625 89.519531 C 141.183594 89.519531 103.359375 127.242188 103.359375 173.570312 C 103.359375 219.898438 141.183594 257.632812 187.640625 257.632812 C 234.097656 257.632812 271.933594 219.910156 271.933594 173.570312 L 271.933594 141.183594 L 253.371094 141.183594 L 253.371094 173.570312 C 253.371094 209.691406 223.859375 239.121094 187.640625 239.121094 C 151.433594 239.121094 121.921875 209.691406 121.921875 173.570312 C 121.921875 137.460938 151.433594 108.03125 187.640625 108.03125 L 201.566406 108.03125 L 201.566406 141.195312 L 187.640625 141.195312 C 169.78125 141.195312 155.164062 155.769531 155.164062 173.582031 C 155.164062 191.394531 169.78125 205.980469 187.640625 205.980469 C 205.5 205.980469 220.117188 191.40625 220.117188 173.582031 L 220.117188 172.296875 C 220.117188 134.335938 220.117188 96.375 220.117188 58.417969 C 247.558594 55.132812 258.460938 81.089844 252.851562 136.300781 C 271.164062 109.664062 277.285156 72.855469 247.589844 43.347656 C 242.886719 38.664062 237.933594 34.105469 233.417969 29.460938 C 226.652344 22.511719 218.191406 5.816406 216.328125 4.4375 Z M 216.328125 4.4375 " clip-rule="evenodd"/></clipPath><linearGradient x1="209.444252" gradientTransform="matrix(1.131147, 0, 0, 1.128069, 103.347971, 2.63394)" y1="110.564362" x2="-0.492007" gradientUnits="userSpaceOnUse" y2="225.130086" id="b45cad6c88"><stop stop-opacity="1" stop-color="rgb(0.378418%, 59.7229%, 85.163879%)" offset="0"/><stop stop-opacity="1" stop-color="rgb(0.628662%, 59.805298%, 84.941101%)" offset="0.00390625"/><stop stop-opacity="1" stop-color="rgb(0.880432%, 59.887695%, 84.718323%)" offset="0.0078125"/><stop stop-opacity="1" stop-color="rgb(1.132202%, 59.970093%, 84.495544%)" offset="0.0117188"/><stop stop-opacity="1" stop-color="rgb(1.383972%, 60.05249%, 84.272766%)" offset="0.015625"/><stop stop-opacity="1" stop-color="rgb(1.634216%, 60.134888%, 84.049988%)" offset="0.0195312"/><stop stop-opacity="1" stop-color="rgb(1.885986%, 60.217285%, 83.827209%)" offset="0.0234375"/><stop stop-opacity="1" stop-color="rgb(2.13623%, 60.299683%, 83.604431%)" offset="0.0273438"/><stop stop-opacity="1" stop-color="rgb(2.388%, 60.38208%, 83.381653%)" offset="0.03125"/><stop stop-opacity="1" stop-color="rgb(2.639771%, 60.464478%, 83.158875%)" offset="0.0351563"/><stop stop-opacity="1" stop-color="rgb(2.891541%, 60.546875%, 82.936096%)" offset="0.0390625"/><stop stop-opacity="1" stop-color="rgb(3.141785%, 60.629272%, 82.713318%)" offset="0.0429688"/><stop stop-opacity="1" stop-color="rgb(3.393555%, 60.71167%, 82.49054%)" offset="0.046875"/><stop stop-opacity="1" stop-color="rgb(3.645325%, 60.794067%, 82.267761%)" offset="0.0507813"/><stop stop-opacity="1" stop-color="rgb(3.897095%, 60.876465%, 82.044983%)" offset="0.0546875"/><stop stop-opacity="1" stop-color="rgb(4.147339%, 60.958862%, 81.822205%)" offset="0.0585938"/><stop stop-opacity="1" stop-color="rgb(4.399109%, 61.04126%, 81.599426%)" offset="0.0625"/><stop stop-opacity="1" stop-color="rgb(4.650879%, 61.123657%, 81.376648%)" offset="0.0664063"/><stop stop-opacity="1" stop-color="rgb(4.902649%, 61.206055%, 81.15387%)" offset="0.0703125"/><stop stop-opacity="1" stop-color="rgb(5.152893%, 61.288452%, 80.931091%)" offset="0.0742188"/><stop stop-opacity="1" stop-color="rgb(5.404663%, 61.37085%, 80.708313%)" offset="0.078125"/><stop stop-opacity="1" stop-color="rgb(5.654907%, 61.453247%, 80.485535%)" offset="0.0820312"/><stop stop-opacity="1" stop-color="rgb(5.906677%, 61.535645%, 80.262756%)" offset="0.0859375"/><stop stop-opacity="1" stop-color="rgb(6.158447%, 61.618042%, 80.039978%)" offset="0.0898438"/><stop stop-opacity="1" stop-color="rgb(6.410217%, 61.700439%, 79.818726%)" offset="0.09375"/><stop stop-opacity="1" stop-color="rgb(6.660461%, 61.782837%, 79.595947%)" offset="0.0976563"/><stop stop-opacity="1" stop-color="rgb(6.912231%, 61.865234%, 79.373169%)" offset="0.101563"/><stop stop-opacity="1" stop-color="rgb(7.164001%, 61.947632%, 79.150391%)" offset="0.105469"/><stop stop-opacity="1" stop-color="rgb(7.415771%, 62.030029%, 78.927612%)" offset="0.109375"/><stop stop-opacity="1" stop-color="rgb(7.666016%, 62.112427%, 78.704834%)" offset="0.113281"/><stop stop-opacity="1" stop-color="rgb(7.917786%, 62.194824%, 78.482056%)" offset="0.117188"/><stop stop-opacity="1" stop-color="rgb(8.169556%, 62.277222%, 78.259277%)" offset="0.121094"/><stop stop-opacity="1" stop-color="rgb(8.421326%, 62.359619%, 78.036499%)" offset="0.125"/><stop stop-opacity="1" stop-color="rgb(8.67157%, 62.442017%, 77.813721%)" offset="0.128906"/><stop stop-opacity="1" stop-color="rgb(8.92334%, 62.524414%, 77.590942%)" offset="0.132812"/><stop stop-opacity="1" stop-color="rgb(9.173584%, 62.606812%, 77.368164%)" offset="0.136719"/><stop stop-opacity="1" stop-color="rgb(9.425354%, 62.689209%, 77.145386%)" offset="0.140625"/><stop stop-opacity="1" stop-color="rgb(9.677124%, 62.771606%, 76.922607%)" offset="0.144531"/><stop stop-opacity="1" stop-color="rgb(9.928894%, 62.854004%, 76.699829%)" offset="0.148438"/><stop stop-opacity="1" stop-color="rgb(10.179138%, 62.936401%, 76.477051%)" offset="0.152344"/><stop stop-opacity="1" stop-color="rgb(10.430908%, 63.018799%, 76.254272%)" offset="0.15625"/><stop stop-opacity="1" stop-color="rgb(10.682678%, 63.101196%, 76.031494%)" offset="0.160156"/><stop stop-opacity="1" stop-color="rgb(10.934448%, 63.183594%, 75.808716%)" offset="0.164063"/><stop stop-opacity="1" stop-color="rgb(11.184692%, 63.265991%, 75.585938%)" offset="0.167969"/><stop stop-opacity="1" stop-color="rgb(11.436462%, 63.348389%, 75.363159%)" offset="0.171875"/><stop stop-opacity="1" stop-color="rgb(11.688232%, 63.430786%, 75.140381%)" offset="0.175781"/><stop stop-opacity="1" stop-color="rgb(11.940002%, 63.513184%, 74.917603%)" offset="0.179688"/><stop stop-opacity="1" stop-color="rgb(12.190247%, 63.595581%, 74.694824%)" offset="0.183594"/><stop stop-opacity="1" stop-color="rgb(12.442017%, 63.677979%, 74.472046%)" offset="0.1875"/><stop stop-opacity="1" stop-color="rgb(12.692261%, 63.760376%, 74.249268%)" offset="0.191406"/><stop stop-opacity="1" stop-color="rgb(12.944031%, 63.842773%, 74.026489%)" offset="0.195312"/><stop stop-opacity="1" stop-color="rgb(13.195801%, 63.925171%, 73.803711%)" offset="0.199219"/><stop stop-opacity="1" stop-color="rgb(13.447571%, 64.007568%, 73.580933%)" offset="0.203125"/><stop stop-opacity="1" stop-color="rgb(13.697815%, 64.089966%, 73.358154%)" offset="0.207031"/><stop stop-opacity="1" stop-color="rgb(13.949585%, 64.172363%, 73.135376%)" offset="0.210937"/><stop stop-opacity="1" stop-color="rgb(14.201355%, 64.254761%, 72.912598%)" offset="0.214844"/><stop stop-opacity="1" stop-color="rgb(14.453125%, 64.337158%, 72.691345%)" offset="0.21875"/><stop stop-opacity="1" stop-color="rgb(14.703369%, 64.419556%, 72.468567%)" offset="0.222656"/><stop stop-opacity="1" stop-color="rgb(14.955139%, 64.501953%, 72.245789%)" offset="0.226563"/><stop stop-opacity="1" stop-color="rgb(15.206909%, 64.584351%, 72.02301%)" offset="0.230469"/><stop stop-opacity="1" stop-color="rgb(15.458679%, 64.666748%, 71.800232%)" offset="0.234375"/><stop stop-opacity="1" stop-color="rgb(15.708923%, 64.749146%, 71.577454%)" offset="0.238281"/><stop stop-opacity="1" stop-color="rgb(15.960693%, 64.831543%, 71.354675%)" offset="0.242188"/><stop stop-opacity="1" stop-color="rgb(16.210938%, 64.91394%, 71.131897%)" offset="0.246094"/><stop stop-opacity="1" stop-color="rgb(16.462708%, 64.996338%, 70.909119%)" offset="0.25"/><stop stop-opacity="1" stop-color="rgb(16.714478%, 65.078735%, 70.68634%)" offset="0.253906"/><stop stop-opacity="1" stop-color="rgb(16.966248%, 65.161133%, 70.463562%)" offset="0.257812"/><stop stop-opacity="1" stop-color="rgb(17.216492%, 65.24353%, 70.240784%)" offset="0.261719"/><stop stop-opacity="1" stop-color="rgb(17.468262%, 65.325928%, 70.018005%)" offset="0.265625"/><stop stop-opacity="1" stop-color="rgb(17.720032%, 65.408325%, 69.795227%)" offset="0.269531"/><stop stop-opacity="1" stop-color="rgb(17.971802%, 65.490723%, 69.572449%)" offset="0.273438"/><stop stop-opacity="1" stop-color="rgb(18.222046%, 65.571594%, 69.34967%)" offset="0.277344"/><stop stop-opacity="1" stop-color="rgb(18.473816%, 65.653992%, 69.126892%)" offset="0.28125"/><stop stop-opacity="1" stop-color="rgb(18.725586%, 65.736389%, 68.904114%)" offset="0.285156"/><stop stop-opacity="1" stop-color="rgb(18.977356%, 65.818787%, 68.681335%)" offset="0.289062"/><stop stop-opacity="1" stop-color="rgb(19.2276%, 65.901184%, 68.458557%)" offset="0.292969"/><stop stop-opacity="1" stop-color="rgb(19.47937%, 65.983582%, 68.235779%)" offset="0.296875"/><stop stop-opacity="1" stop-color="rgb(19.73114%, 66.065979%, 68.013%)" offset="0.300781"/><stop stop-opacity="1" stop-color="rgb(19.98291%, 66.148376%, 67.790222%)" offset="0.304688"/><stop stop-opacity="1" stop-color="rgb(20.233154%, 66.230774%, 67.567444%)" offset="0.308594"/><stop stop-opacity="1" stop-color="rgb(20.484924%, 66.313171%, 67.344666%)" offset="0.3125"/><stop stop-opacity="1" stop-color="rgb(20.735168%, 66.395569%, 67.121887%)" offset="0.316406"/><stop stop-opacity="1" stop-color="rgb(20.986938%, 66.477966%, 66.899109%)" offset="0.320312"/><stop stop-opacity="1" stop-color="rgb(21.238708%, 66.560364%, 66.676331%)" offset="0.324219"/><stop stop-opacity="1" stop-color="rgb(21.490479%, 66.642761%, 66.453552%)" offset="0.328125"/><stop stop-opacity="1" stop-color="rgb(21.740723%, 66.725159%, 66.230774%)" offset="0.332031"/><stop stop-opacity="1" stop-color="rgb(21.992493%, 66.807556%, 66.007996%)" offset="0.335937"/><stop stop-opacity="1" stop-color="rgb(22.244263%, 66.889954%, 65.785217%)" offset="0.339844"/><stop stop-opacity="1" stop-color="rgb(22.496033%, 66.972351%, 65.563965%)" offset="0.34375"/><stop stop-opacity="1" stop-color="rgb(22.746277%, 67.054749%, 65.341187%)" offset="0.347656"/><stop stop-opacity="1" stop-color="rgb(22.998047%, 67.137146%, 65.118408%)" offset="0.351562"/><stop stop-opacity="1" stop-color="rgb(23.249817%, 67.219543%, 64.89563%)" offset="0.355469"/><stop stop-opacity="1" stop-color="rgb(23.501587%, 67.301941%, 64.672852%)" offset="0.359375"/><stop stop-opacity="1" stop-color="rgb(23.751831%, 67.384338%, 64.450073%)" offset="0.363281"/><stop stop-opacity="1" stop-color="rgb(24.003601%, 67.466736%, 64.227295%)" offset="0.367188"/><stop stop-opacity="1" stop-color="rgb(24.253845%, 67.549133%, 64.004517%)" offset="0.371094"/><stop stop-opacity="1" stop-color="rgb(24.505615%, 67.631531%, 63.781738%)" offset="0.375"/><stop stop-opacity="1" stop-color="rgb(24.757385%, 67.713928%, 63.55896%)" offset="0.378906"/><stop stop-opacity="1" stop-color="rgb(25.009155%, 67.796326%, 63.336182%)" offset="0.382812"/><stop stop-opacity="1" stop-color="rgb(25.259399%, 67.878723%, 63.113403%)" offset="0.386719"/><stop stop-opacity="1" stop-color="rgb(25.511169%, 67.961121%, 62.890625%)" offset="0.390625"/><stop stop-opacity="1" stop-color="rgb(25.762939%, 68.043518%, 62.667847%)" offset="0.394531"/><stop stop-opacity="1" stop-color="rgb(26.014709%, 68.125916%, 62.445068%)" offset="0.398438"/><stop stop-opacity="1" stop-color="rgb(26.264954%, 68.208313%, 62.22229%)" offset="0.402344"/><stop stop-opacity="1" stop-color="rgb(26.516724%, 68.29071%, 61.999512%)" offset="0.40625"/><stop stop-opacity="1" stop-color="rgb(26.768494%, 68.373108%, 61.776733%)" offset="0.410156"/><stop stop-opacity="1" stop-color="rgb(27.020264%, 68.455505%, 61.553955%)" offset="0.414062"/><stop stop-opacity="1" stop-color="rgb(27.270508%, 68.537903%, 61.331177%)" offset="0.417969"/><stop stop-opacity="1" stop-color="rgb(27.522278%, 68.6203%, 61.108398%)" offset="0.421875"/><stop stop-opacity="1" stop-color="rgb(27.772522%, 68.702698%, 60.88562%)" offset="0.425781"/><stop stop-opacity="1" stop-color="rgb(28.024292%, 68.785095%, 60.662842%)" offset="0.429687"/><stop stop-opacity="1" stop-color="rgb(28.276062%, 68.867493%, 60.440063%)" offset="0.433594"/><stop stop-opacity="1" stop-color="rgb(28.527832%, 68.94989%, 60.217285%)" offset="0.4375"/><stop stop-opacity="1" stop-color="rgb(28.778076%, 69.032288%, 59.994507%)" offset="0.441406"/><stop stop-opacity="1" stop-color="rgb(29.029846%, 69.114685%, 59.771729%)" offset="0.445312"/><stop stop-opacity="1" stop-color="rgb(29.281616%, 69.197083%, 59.54895%)" offset="0.449219"/><stop stop-opacity="1" stop-color="rgb(29.533386%, 69.27948%, 59.326172%)" offset="0.453125"/><stop stop-opacity="1" stop-color="rgb(29.78363%, 69.361877%, 59.103394%)" offset="0.457031"/><stop stop-opacity="1" stop-color="rgb(30.0354%, 69.444275%, 58.880615%)" offset="0.460937"/><stop stop-opacity="1" stop-color="rgb(30.28717%, 69.526672%, 58.657837%)" offset="0.464844"/><stop stop-opacity="1" stop-color="rgb(30.53894%, 69.60907%, 58.436584%)" offset="0.46875"/><stop stop-opacity="1" stop-color="rgb(30.789185%, 69.691467%, 58.213806%)" offset="0.472656"/><stop stop-opacity="1" stop-color="rgb(31.040955%, 69.773865%, 57.991028%)" offset="0.476562"/><stop stop-opacity="1" stop-color="rgb(31.291199%, 69.856262%, 57.76825%)" offset="0.480469"/><stop stop-opacity="1" stop-color="rgb(31.542969%, 69.93866%, 57.545471%)" offset="0.484375"/><stop stop-opacity="1" stop-color="rgb(31.794739%, 70.021057%, 57.322693%)" offset="0.488281"/><stop stop-opacity="1" stop-color="rgb(32.046509%, 70.103455%, 57.099915%)" offset="0.492188"/><stop stop-opacity="1" stop-color="rgb(32.296753%, 70.185852%, 56.877136%)" offset="0.496094"/><stop stop-opacity="1" stop-color="rgb(32.548523%, 70.26825%, 56.654358%)" offset="0.5"/><stop stop-opacity="1" stop-color="rgb(32.800293%, 70.350647%, 56.43158%)" offset="0.503906"/><stop stop-opacity="1" stop-color="rgb(33.052063%, 70.433044%, 56.208801%)" offset="0.507812"/><stop stop-opacity="1" stop-color="rgb(33.302307%, 70.515442%, 55.986023%)" offset="0.511719"/><stop stop-opacity="1" stop-color="rgb(33.554077%, 70.597839%, 55.763245%)" offset="0.515625"/><stop stop-opacity="1" stop-color="rgb(33.805847%, 70.680237%, 55.540466%)" offset="0.519531"/><stop stop-opacity="1" stop-color="rgb(34.057617%, 70.762634%, 55.317688%)" offset="0.523438"/><stop stop-opacity="1" stop-color="rgb(34.307861%, 70.845032%, 55.09491%)" offset="0.527344"/><stop stop-opacity="1" stop-color="rgb(34.559631%, 70.927429%, 54.872131%)" offset="0.53125"/><stop stop-opacity="1" stop-color="rgb(34.809875%, 71.009827%, 54.649353%)" offset="0.535156"/><stop stop-opacity="1" stop-color="rgb(35.061646%, 71.092224%, 54.426575%)" offset="0.539062"/><stop stop-opacity="1" stop-color="rgb(35.313416%, 71.174622%, 54.203796%)" offset="0.542969"/><stop stop-opacity="1" stop-color="rgb(35.565186%, 71.257019%, 53.981018%)" offset="0.546875"/><stop stop-opacity="1" stop-color="rgb(35.81543%, 71.339417%, 53.75824%)" offset="0.550781"/><stop stop-opacity="1" stop-color="rgb(36.0672%, 71.421814%, 53.535461%)" offset="0.554688"/><stop stop-opacity="1" stop-color="rgb(36.31897%, 71.504211%, 53.312683%)" offset="0.558594"/><stop stop-opacity="1" stop-color="rgb(36.57074%, 71.586609%, 53.089905%)" offset="0.5625"/><stop stop-opacity="1" stop-color="rgb(36.820984%, 71.669006%, 52.867126%)" offset="0.566406"/><stop stop-opacity="1" stop-color="rgb(37.072754%, 71.751404%, 52.644348%)" offset="0.570312"/><stop stop-opacity="1" stop-color="rgb(37.324524%, 71.833801%, 52.42157%)" offset="0.574219"/><stop stop-opacity="1" stop-color="rgb(37.576294%, 71.916199%, 52.198792%)" offset="0.578125"/><stop stop-opacity="1" stop-color="rgb(37.826538%, 71.998596%, 51.976013%)" offset="0.582031"/><stop stop-opacity="1" stop-color="rgb(38.078308%, 72.080994%, 51.753235%)" offset="0.585938"/><stop stop-opacity="1" stop-color="rgb(38.328552%, 72.163391%, 51.530457%)" offset="0.589844"/><stop stop-opacity="1" stop-color="rgb(38.580322%, 72.245789%, 51.307678%)" offset="0.59375"/><stop stop-opacity="1" stop-color="rgb(38.832092%, 72.328186%, 51.0849%)" offset="0.597656"/><stop stop-opacity="1" stop-color="rgb(39.083862%, 72.410583%, 50.863647%)" offset="0.601562"/><stop stop-opacity="1" stop-color="rgb(39.334106%, 72.492981%, 50.640869%)" offset="0.605469"/><stop stop-opacity="1" stop-color="rgb(39.585876%, 72.575378%, 50.418091%)" offset="0.609375"/><stop stop-opacity="1" stop-color="rgb(39.837646%, 72.657776%, 50.195312%)" offset="0.613281"/><stop stop-opacity="1" stop-color="rgb(40.089417%, 72.740173%, 49.972534%)" offset="0.617188"/><stop stop-opacity="1" stop-color="rgb(40.339661%, 72.821045%, 49.749756%)" offset="0.621094"/><stop stop-opacity="1" stop-color="rgb(40.591431%, 72.903442%, 49.526978%)" offset="0.625"/><stop stop-opacity="1" stop-color="rgb(40.843201%, 72.98584%, 49.304199%)" offset="0.628906"/><stop stop-opacity="1" stop-color="rgb(41.094971%, 73.068237%, 49.081421%)" offset="0.632813"/><stop stop-opacity="1" stop-color="rgb(41.345215%, 73.150635%, 48.858643%)" offset="0.636719"/><stop stop-opacity="1" stop-color="rgb(41.596985%, 73.233032%, 48.635864%)" offset="0.640625"/><stop stop-opacity="1" stop-color="rgb(41.847229%, 73.31543%, 48.413086%)" offset="0.644531"/><stop stop-opacity="1" stop-color="rgb(42.098999%, 73.397827%, 48.190308%)" offset="0.648438"/><stop stop-opacity="1" stop-color="rgb(42.350769%, 73.480225%, 47.967529%)" offset="0.652344"/><stop stop-opacity="1" stop-color="rgb(42.602539%, 73.562622%, 47.744751%)" offset="0.65625"/><stop stop-opacity="1" stop-color="rgb(42.852783%, 73.64502%, 47.521973%)" offset="0.660156"/><stop stop-opacity="1" stop-color="rgb(43.104553%, 73.727417%, 47.299194%)" offset="0.664063"/><stop stop-opacity="1" stop-color="rgb(43.356323%, 73.809814%, 47.076416%)" offset="0.667969"/><stop stop-opacity="1" stop-color="rgb(43.608093%, 73.892212%, 46.853638%)" offset="0.671875"/><stop stop-opacity="1" stop-color="rgb(43.858337%, 73.974609%, 46.630859%)" offset="0.675781"/><stop stop-opacity="1" stop-color="rgb(44.110107%, 74.057007%, 46.408081%)" offset="0.679688"/><stop stop-opacity="1" stop-color="rgb(44.361877%, 74.139404%, 46.185303%)" offset="0.683594"/><stop stop-opacity="1" stop-color="rgb(44.613647%, 74.221802%, 45.962524%)" offset="0.6875"/><stop stop-opacity="1" stop-color="rgb(44.863892%, 74.304199%, 45.739746%)" offset="0.691406"/><stop stop-opacity="1" stop-color="rgb(45.115662%, 74.386597%, 45.516968%)" offset="0.695312"/><stop stop-opacity="1" stop-color="rgb(45.365906%, 74.468994%, 45.294189%)" offset="0.699219"/><stop stop-opacity="1" stop-color="rgb(45.617676%, 74.551392%, 45.071411%)" offset="0.703125"/><stop stop-opacity="1" stop-color="rgb(45.869446%, 74.633789%, 44.848633%)" offset="0.707031"/><stop stop-opacity="1" stop-color="rgb(46.121216%, 74.716187%, 44.625854%)" offset="0.710938"/><stop stop-opacity="1" stop-color="rgb(46.37146%, 74.798584%, 44.403076%)" offset="0.714844"/><stop stop-opacity="1" stop-color="rgb(46.62323%, 74.880981%, 44.180298%)" offset="0.71875"/><stop stop-opacity="1" stop-color="rgb(46.875%, 74.963379%, 43.95752%)" offset="0.722656"/><stop stop-opacity="1" stop-color="rgb(47.12677%, 75.045776%, 43.736267%)" offset="0.726562"/><stop stop-opacity="1" stop-color="rgb(47.377014%, 75.128174%, 43.513489%)" offset="0.730469"/><stop stop-opacity="1" stop-color="rgb(47.628784%, 75.210571%, 43.29071%)" offset="0.734375"/><stop stop-opacity="1" stop-color="rgb(47.880554%, 75.292969%, 43.067932%)" offset="0.738281"/><stop stop-opacity="1" stop-color="rgb(48.132324%, 75.375366%, 42.845154%)" offset="0.742188"/><stop stop-opacity="1" stop-color="rgb(48.382568%, 75.457764%, 42.622375%)" offset="0.746094"/><stop stop-opacity="1" stop-color="rgb(48.634338%, 75.540161%, 42.399597%)" offset="0.75"/><stop stop-opacity="1" stop-color="rgb(48.884583%, 75.622559%, 42.176819%)" offset="0.753906"/><stop stop-opacity="1" stop-color="rgb(49.136353%, 75.704956%, 41.954041%)" offset="0.757812"/><stop stop-opacity="1" stop-color="rgb(49.388123%, 75.787354%, 41.731262%)" offset="0.761719"/><stop stop-opacity="1" stop-color="rgb(49.639893%, 75.869751%, 41.508484%)" offset="0.765625"/><stop stop-opacity="1" stop-color="rgb(49.890137%, 75.952148%, 41.285706%)" offset="0.769531"/><stop stop-opacity="1" stop-color="rgb(50.141907%, 76.034546%, 41.062927%)" offset="0.773438"/><stop stop-opacity="1" stop-color="rgb(50.393677%, 76.116943%, 40.840149%)" offset="0.777344"/><stop stop-opacity="1" stop-color="rgb(50.645447%, 76.199341%, 40.617371%)" offset="0.78125"/><stop stop-opacity="1" stop-color="rgb(50.895691%, 76.281738%, 40.394592%)" offset="0.785156"/><stop stop-opacity="1" stop-color="rgb(51.147461%, 76.364136%, 40.171814%)" offset="0.789062"/><stop stop-opacity="1" stop-color="rgb(51.399231%, 76.446533%, 39.949036%)" offset="0.792969"/><stop stop-opacity="1" stop-color="rgb(51.651001%, 76.528931%, 39.726257%)" offset="0.796875"/><stop stop-opacity="1" stop-color="rgb(51.901245%, 76.611328%, 39.503479%)" offset="0.800781"/><stop stop-opacity="1" stop-color="rgb(52.153015%, 76.693726%, 39.280701%)" offset="0.804688"/><stop stop-opacity="1" stop-color="rgb(52.403259%, 76.776123%, 39.057922%)" offset="0.808594"/><stop stop-opacity="1" stop-color="rgb(52.655029%, 76.858521%, 38.835144%)" offset="0.8125"/><stop stop-opacity="1" stop-color="rgb(52.906799%, 76.940918%, 38.612366%)" offset="0.816406"/><stop stop-opacity="1" stop-color="rgb(53.158569%, 77.023315%, 38.389587%)" offset="0.820312"/><stop stop-opacity="1" stop-color="rgb(53.408813%, 77.105713%, 38.166809%)" offset="0.824219"/><stop stop-opacity="1" stop-color="rgb(53.660583%, 77.18811%, 37.944031%)" offset="0.828125"/><stop stop-opacity="1" stop-color="rgb(53.912354%, 77.270508%, 37.721252%)" offset="0.832031"/><stop stop-opacity="1" stop-color="rgb(54.164124%, 77.352905%, 37.498474%)" offset="0.835938"/><stop stop-opacity="1" stop-color="rgb(54.414368%, 77.435303%, 37.275696%)" offset="0.839844"/><stop stop-opacity="1" stop-color="rgb(54.666138%, 77.5177%, 37.052917%)" offset="0.84375"/><stop stop-opacity="1" stop-color="rgb(54.917908%, 77.600098%, 36.830139%)" offset="0.847656"/><stop stop-opacity="1" stop-color="rgb(55.169678%, 77.682495%, 36.608887%)" offset="0.851562"/><stop stop-opacity="1" stop-color="rgb(55.419922%, 77.764893%, 36.386108%)" offset="0.855469"/><stop stop-opacity="1" stop-color="rgb(55.671692%, 77.84729%, 36.16333%)" offset="0.859375"/><stop stop-opacity="1" stop-color="rgb(55.923462%, 77.929688%, 35.940552%)" offset="0.863281"/><stop stop-opacity="1" stop-color="rgb(56.175232%, 78.012085%, 35.717773%)" offset="0.867188"/><stop stop-opacity="1" stop-color="rgb(56.425476%, 78.094482%, 35.494995%)" offset="0.871094"/><stop stop-opacity="1" stop-color="rgb(56.677246%, 78.17688%, 35.272217%)" offset="0.875"/><stop stop-opacity="1" stop-color="rgb(56.92749%, 78.259277%, 35.049438%)" offset="0.878906"/><stop stop-opacity="1" stop-color="rgb(57.17926%, 78.341675%, 34.82666%)" offset="0.882813"/><stop stop-opacity="1" stop-color="rgb(57.43103%, 78.424072%, 34.603882%)" offset="0.886719"/><stop stop-opacity="1" stop-color="rgb(57.6828%, 78.50647%, 34.381104%)" offset="0.890625"/><stop stop-opacity="1" stop-color="rgb(57.933044%, 78.588867%, 34.158325%)" offset="0.894531"/><stop stop-opacity="1" stop-color="rgb(58.184814%, 78.671265%, 33.935547%)" offset="0.898438"/><stop stop-opacity="1" stop-color="rgb(58.436584%, 78.753662%, 33.712769%)" offset="0.902344"/><stop stop-opacity="1" stop-color="rgb(58.688354%, 78.83606%, 33.48999%)" offset="0.90625"/><stop stop-opacity="1" stop-color="rgb(58.938599%, 78.918457%, 33.267212%)" offset="0.910156"/><stop stop-opacity="1" stop-color="rgb(59.190369%, 79.000854%, 33.044434%)" offset="0.914062"/><stop stop-opacity="1" stop-color="rgb(59.442139%, 79.083252%, 32.821655%)" offset="0.917969"/><stop stop-opacity="1" stop-color="rgb(59.693909%, 79.165649%, 32.598877%)" offset="0.921875"/><stop stop-opacity="1" stop-color="rgb(59.944153%, 79.248047%, 32.376099%)" offset="0.925781"/><stop stop-opacity="1" stop-color="rgb(60.195923%, 79.330444%, 32.15332%)" offset="0.929688"/><stop stop-opacity="1" stop-color="rgb(60.446167%, 79.412842%, 31.930542%)" offset="0.933594"/><stop stop-opacity="1" stop-color="rgb(60.697937%, 79.495239%, 31.707764%)" offset="0.9375"/><stop stop-opacity="1" stop-color="rgb(60.949707%, 79.577637%, 31.484985%)" offset="0.941406"/><stop stop-opacity="1" stop-color="rgb(61.201477%, 79.660034%, 31.262207%)" offset="0.945312"/><stop stop-opacity="1" stop-color="rgb(61.451721%, 79.742432%, 31.039429%)" offset="0.949219"/><stop stop-opacity="1" stop-color="rgb(61.703491%, 79.824829%, 30.81665%)" offset="0.953125"/><stop stop-opacity="1" stop-color="rgb(61.955261%, 79.907227%, 30.593872%)" offset="0.957031"/><stop stop-opacity="1" stop-color="rgb(62.207031%, 79.989624%, 30.371094%)" offset="0.960938"/><stop stop-opacity="1" stop-color="rgb(62.457275%, 80.070496%, 30.148315%)" offset="0.964844"/><stop stop-opacity="1" stop-color="rgb(62.709045%, 80.152893%, 29.925537%)" offset="0.96875"/><stop stop-opacity="1" stop-color="rgb(62.960815%, 80.235291%, 29.702759%)" offset="0.972656"/><stop stop-opacity="1" stop-color="rgb(63.212585%, 80.317688%, 29.481506%)" offset="0.976562"/><stop stop-opacity="1" stop-color="rgb(63.46283%, 80.400085%, 29.258728%)" offset="0.980469"/><stop stop-opacity="1" stop-color="rgb(63.7146%, 80.482483%, 29.03595%)" offset="0.984375"/><stop stop-opacity="1" stop-color="rgb(63.964844%, 80.56488%, 28.813171%)" offset="0.988281"/><stop stop-opacity="1" stop-color="rgb(64.216614%, 80.647278%, 28.590393%)" offset="0.992188"/><stop stop-opacity="1" stop-color="rgb(64.468384%, 80.729675%, 28.367615%)" offset="0.996094"/><stop stop-opacity="1" stop-color="rgb(64.720154%, 80.812073%, 28.144836%)" offset="1"/></linearGradient></defs><g clip-path="url(#9e289d9206)"><g clip-path="url(#c385fcc97a)"><path fill="url(#b45cad6c88)" d="M 103.359375 2.632812 L 103.359375 257.632812 L 272.011719 257.632812 L 272.011719 2.632812 Z M 103.359375 2.632812 " fill-rule="nonzero"/></g></g><g fill="#a8cf45" fill-opacity="1"><g transform="translate(45.695897, 316.687958)"><g/></g></g><g fill="#a8cf45" fill-opacity="1"><g transform="translate(76.328536, 316.687958)"><g><path d="M 50.796875 -43.71875 C 51.117188 -43.101562 51.3125 -42.546875 51.375 -42.046875 C 51.4375 -41.546875 51.46875 -40.820312 51.46875 -39.875 L 51.46875 -5.453125 C 51.46875 -2.597656 50.679688 -0.925781 49.109375 -0.4375 C 48.328125 -0.1875 47.335938 -0.0625 46.140625 -0.0625 C 44.941406 -0.0625 43.988281 -0.164062 43.28125 -0.375 C 42.582031 -0.582031 42.046875 -0.828125 41.671875 -1.109375 C 41.296875 -1.398438 41.007812 -1.816406 40.8125 -2.359375 C 40.601562 -3.054688 40.5 -4.128906 40.5 -5.578125 L 40.5 -26.359375 C 39.46875 -25.078125 37.957031 -23.039062 35.96875 -20.25 C 33.988281 -17.457031 32.726562 -15.707031 32.1875 -15 C 31.644531 -14.300781 31.269531 -13.816406 31.0625 -13.546875 C 30.863281 -13.273438 30.359375 -12.898438 29.546875 -12.421875 C 28.742188 -11.953125 27.875 -11.71875 26.9375 -11.71875 C 26.007812 -11.71875 25.160156 -11.929688 24.390625 -12.359375 C 23.628906 -12.796875 23.085938 -13.222656 22.765625 -13.640625 L 22.265625 -14.328125 C 21.429688 -15.359375 19.796875 -17.554688 17.359375 -20.921875 C 14.921875 -24.296875 13.597656 -26.109375 13.390625 -26.359375 L 13.390625 -5.453125 C 13.390625 -4.503906 13.359375 -3.789062 13.296875 -3.3125 C 13.234375 -2.84375 13.039062 -2.316406 12.71875 -1.734375 C 12.09375 -0.617188 10.476562 -0.0625 7.875 -0.0625 C 5.351562 -0.0625 3.78125 -0.617188 3.15625 -1.734375 C 2.832031 -2.316406 2.640625 -2.851562 2.578125 -3.34375 C 2.515625 -3.84375 2.484375 -4.585938 2.484375 -5.578125 L 2.484375 -40 C 2.484375 -40.945312 2.515625 -41.660156 2.578125 -42.140625 C 2.640625 -42.617188 2.832031 -43.164062 3.15625 -43.78125 C 3.78125 -44.851562 5.394531 -45.390625 8 -45.390625 C 9.113281 -45.390625 10.070312 -45.253906 10.875 -44.984375 C 11.6875 -44.722656 12.21875 -44.445312 12.46875 -44.15625 L 12.84375 -43.78125 L 26.921875 -25.296875 C 33.941406 -34.597656 38.632812 -40.738281 41 -43.71875 C 41.695312 -44.832031 43.359375 -45.390625 45.984375 -45.390625 C 48.609375 -45.390625 50.210938 -44.832031 50.796875 -43.71875 Z M 50.796875 -43.71875 "/></g></g></g><g fill="#a8cf45" fill-opacity="1"><g transform="translate(145.232709, 316.687958)"><g><path d="M 32.1875 -43.78125 C 32.601562 -44.445312 33.203125 -44.898438 33.984375 -45.140625 C 34.765625 -45.390625 35.742188 -45.515625 36.921875 -45.515625 C 38.109375 -45.515625 39.050781 -45.410156 39.75 -45.203125 C 40.457031 -45.003906 40.992188 -44.757812 41.359375 -44.46875 C 41.734375 -44.175781 42.003906 -43.738281 42.171875 -43.15625 C 42.421875 -42.457031 42.546875 -41.382812 42.546875 -39.9375 L 42.546875 -21.203125 C 42.546875 -15.742188 40.847656 -10.785156 37.453125 -6.328125 C 35.804688 -4.210938 33.675781 -2.503906 31.0625 -1.203125 C 28.457031 0.0976562 25.570312 0.75 22.40625 0.75 C 19.25 0.75 16.378906 0.0859375 13.796875 -1.234375 C 11.210938 -2.554688 9.113281 -4.296875 7.5 -6.453125 C 4.15625 -10.828125 2.484375 -15.785156 2.484375 -21.328125 L 2.484375 -40 C 2.484375 -40.988281 2.515625 -41.722656 2.578125 -42.203125 C 2.640625 -42.679688 2.832031 -43.226562 3.15625 -43.84375 C 3.488281 -44.46875 4.046875 -44.898438 4.828125 -45.140625 C 5.617188 -45.390625 6.675781 -45.515625 8 -45.515625 C 9.320312 -45.515625 10.375 -45.390625 11.15625 -45.140625 C 11.945312 -44.898438 12.488281 -44.46875 12.78125 -43.84375 C 13.269531 -42.894531 13.515625 -41.59375 13.515625 -39.9375 L 13.515625 -21.328125 C 13.515625 -18.804688 14.132812 -16.410156 15.375 -14.140625 C 16 -12.984375 16.929688 -12.050781 18.171875 -11.34375 C 19.410156 -10.644531 20.878906 -10.296875 22.578125 -10.296875 C 25.585938 -10.296875 27.835938 -11.410156 29.328125 -13.640625 C 30.816406 -15.878906 31.5625 -18.460938 31.5625 -21.390625 L 31.5625 -40.375 C 31.5625 -41.988281 31.769531 -43.125 32.1875 -43.78125 Z M 32.1875 -43.78125 "/></g></g></g><g fill="#a8cf45" fill-opacity="1"><g transform="translate(205.206284, 316.687958)"><g><path d="M 3.15625 -6.390625 C 2.082031 -7.710938 1.546875 -8.898438 1.546875 -9.953125 C 1.546875 -11.003906 2.4375 -12.398438 4.21875 -14.140625 C 5.25 -15.128906 6.34375 -15.625 7.5 -15.625 C 8.65625 -15.625 10.269531 -14.59375 12.34375 -12.53125 C 12.914062 -11.820312 13.738281 -11.144531 14.8125 -10.5 C 15.894531 -9.863281 16.890625 -9.546875 17.796875 -9.546875 C 21.640625 -9.546875 23.5625 -11.117188 23.5625 -14.265625 C 23.5625 -15.210938 23.035156 -16.003906 21.984375 -16.640625 C 20.929688 -17.285156 19.617188 -17.753906 18.046875 -18.046875 C 16.472656 -18.335938 14.773438 -18.800781 12.953125 -19.4375 C 11.140625 -20.082031 9.445312 -20.835938 7.875 -21.703125 C 6.300781 -22.566406 4.988281 -23.941406 3.9375 -25.828125 C 2.882812 -27.710938 2.359375 -29.976562 2.359375 -32.625 C 2.359375 -36.257812 3.710938 -39.429688 6.421875 -42.140625 C 9.128906 -44.847656 12.816406 -46.203125 17.484375 -46.203125 C 19.960938 -46.203125 22.222656 -45.878906 24.265625 -45.234375 C 26.316406 -44.597656 27.738281 -43.945312 28.53125 -43.28125 L 30.078125 -42.109375 C 31.359375 -40.910156 32 -39.894531 32 -39.0625 C 32 -38.238281 31.503906 -37.101562 30.515625 -35.65625 C 29.109375 -33.59375 27.660156 -32.5625 26.171875 -32.5625 C 25.304688 -32.5625 24.234375 -32.972656 22.953125 -33.796875 C 22.828125 -33.878906 22.585938 -34.085938 22.234375 -34.421875 C 21.878906 -34.753906 21.554688 -35.019531 21.265625 -35.21875 C 20.398438 -35.757812 19.296875 -36.03125 17.953125 -36.03125 C 16.609375 -36.03125 15.488281 -35.707031 14.59375 -35.0625 C 13.707031 -34.425781 13.265625 -33.539062 13.265625 -32.40625 C 13.265625 -31.269531 13.789062 -30.347656 14.84375 -29.640625 C 15.90625 -28.941406 17.21875 -28.46875 18.78125 -28.21875 C 20.351562 -27.96875 22.070312 -27.582031 23.9375 -27.0625 C 25.800781 -26.550781 27.515625 -25.921875 29.078125 -25.171875 C 30.648438 -24.429688 31.960938 -23.140625 33.015625 -21.296875 C 34.078125 -19.460938 34.609375 -17.203125 34.609375 -14.515625 C 34.609375 -11.828125 34.066406 -9.457031 32.984375 -7.40625 C 31.910156 -5.363281 30.507812 -3.785156 28.78125 -2.671875 C 25.425781 -0.472656 21.847656 0.625 18.046875 0.625 C 16.097656 0.625 14.253906 0.382812 12.515625 -0.09375 C 10.785156 -0.570312 9.382812 -1.160156 8.3125 -1.859375 C 6.113281 -3.179688 4.582031 -4.460938 3.71875 -5.703125 Z M 3.15625 -6.390625 "/></g></g></g><g fill="#a8cf45" fill-opacity="1"><g transform="translate(256.311264, 316.687958)"><g><path d="M 2.484375 -40 C 2.484375 -40.945312 2.515625 -41.660156 2.578125 -42.140625 C 2.640625 -42.617188 2.832031 -43.164062 3.15625 -43.78125 C 3.738281 -44.894531 5.351562 -45.453125 8 -45.453125 C 10.894531 -45.453125 12.609375 -44.6875 13.140625 -43.15625 C 13.347656 -42.457031 13.453125 -41.382812 13.453125 -39.9375 L 13.453125 -5.453125 C 13.453125 -4.460938 13.421875 -3.738281 13.359375 -3.28125 C 13.296875 -2.832031 13.101562 -2.296875 12.78125 -1.671875 C 12.195312 -0.554688 10.582031 0 7.9375 0 C 5.039062 0 3.347656 -0.785156 2.859375 -2.359375 C 2.609375 -3.015625 2.484375 -4.066406 2.484375 -5.515625 Z M 2.484375 -40 "/></g></g></g><g fill="#a8cf45" fill-opacity="1"><g transform="translate(287.198357, 316.687958)"><g><path d="M 30.890625 -11.90625 L 32 -12.71875 C 33.40625 -13.539062 34.398438 -13.953125 34.984375 -13.953125 C 36.265625 -13.953125 37.644531 -12.796875 39.125 -10.484375 C 40.039062 -9.035156 40.5 -7.875 40.5 -7 C 40.5 -6.132812 40.21875 -5.410156 39.65625 -4.828125 C 39.101562 -4.253906 38.453125 -3.738281 37.703125 -3.28125 C 36.960938 -2.832031 36.25 -2.398438 35.5625 -1.984375 C 34.882812 -1.566406 33.488281 -1.023438 31.375 -0.359375 C 29.269531 0.296875 27.234375 0.625 25.265625 0.625 C 23.304688 0.625 21.320312 0.363281 19.3125 -0.15625 C 17.3125 -0.675781 15.242188 -1.546875 13.109375 -2.765625 C 10.984375 -3.984375 9.070312 -5.46875 7.375 -7.21875 C 5.6875 -8.976562 4.289062 -11.234375 3.1875 -13.984375 C 2.09375 -16.734375 1.546875 -19.71875 1.546875 -22.9375 C 1.546875 -26.164062 2.082031 -29.09375 3.15625 -31.71875 C 4.238281 -34.34375 5.613281 -36.515625 7.28125 -38.234375 C 8.957031 -39.953125 10.867188 -41.390625 13.015625 -42.546875 C 17.066406 -44.773438 21.140625 -45.890625 25.234375 -45.890625 C 27.179688 -45.890625 29.15625 -45.585938 31.15625 -44.984375 C 33.164062 -44.390625 34.6875 -43.78125 35.71875 -43.15625 L 37.203125 -42.296875 C 37.953125 -41.835938 38.535156 -41.460938 38.953125 -41.171875 C 40.023438 -40.304688 40.5625 -39.328125 40.5625 -38.234375 C 40.5625 -37.140625 40.125 -35.992188 39.25 -34.796875 C 37.644531 -32.554688 36.203125 -31.4375 34.921875 -31.4375 C 34.171875 -31.4375 33.113281 -31.894531 31.75 -32.8125 C 30.007812 -34.21875 27.695312 -34.921875 24.8125 -34.921875 C 22.125 -34.921875 19.476562 -33.988281 16.875 -32.125 C 15.625 -31.21875 14.585938 -29.9375 13.765625 -28.28125 C 12.941406 -26.625 12.53125 -24.75 12.53125 -22.65625 C 12.53125 -20.570312 12.941406 -18.703125 13.765625 -17.046875 C 14.585938 -15.398438 15.644531 -14.097656 16.9375 -13.140625 C 19.457031 -11.328125 22.082031 -10.421875 24.8125 -10.421875 C 26.09375 -10.421875 27.300781 -10.582031 28.4375 -10.90625 C 29.570312 -11.238281 30.390625 -11.570312 30.890625 -11.90625 Z M 30.890625 -11.90625 "/></g></g></g><g fill="#0098da" fill-opacity="1"><g transform="translate(134.430392, 348.929883)"><g><path d="M 10.84375 -10.90625 C 11.164062 -10.25 11.328125 -9.515625 11.328125 -8.703125 C 11.328125 -7.898438 11.164062 -7.171875 10.84375 -6.515625 C 10.519531 -5.867188 10.101562 -5.351562 9.59375 -4.96875 C 8.5625 -4.164062 7.488281 -3.765625 6.375 -3.765625 L 4.046875 -3.765625 L 4.046875 -1.65625 C 4.046875 -1.375 4.035156 -1.160156 4.015625 -1.015625 C 4.003906 -0.867188 3.945312 -0.703125 3.84375 -0.515625 C 3.664062 -0.179688 3.179688 -0.015625 2.390625 -0.015625 C 1.515625 -0.015625 1.003906 -0.242188 0.859375 -0.703125 C 0.785156 -0.921875 0.75 -1.242188 0.75 -1.671875 L 0.75 -12.03125 C 0.75 -12.320312 0.753906 -12.535156 0.765625 -12.671875 C 0.785156 -12.816406 0.847656 -12.984375 0.953125 -13.171875 C 1.128906 -13.503906 1.613281 -13.671875 2.40625 -13.671875 L 6.40625 -13.671875 C 7.5 -13.671875 8.5625 -13.273438 9.59375 -12.484375 C 10.101562 -12.097656 10.519531 -11.570312 10.84375 -10.90625 Z M 6.40625 -7.078125 C 6.769531 -7.078125 7.132812 -7.210938 7.5 -7.484375 C 7.863281 -7.753906 8.046875 -8.160156 8.046875 -8.703125 C 8.046875 -9.253906 7.863281 -9.671875 7.5 -9.953125 C 7.132812 -10.234375 6.757812 -10.375 6.375 -10.375 L 4.046875 -10.375 L 4.046875 -7.078125 Z M 6.40625 -7.078125 "/></g></g></g><g fill="#0098da" fill-opacity="1"><g transform="translate(152.749535, 348.929883)"><g><path d="M 4.046875 -2.765625 L 9.125 -2.765625 C 9.53125 -2.765625 9.828125 -2.71875 10.015625 -2.625 C 10.203125 -2.53125 10.328125 -2.382812 10.390625 -2.1875 C 10.453125 -1.988281 10.484375 -1.722656 10.484375 -1.390625 C 10.484375 -1.054688 10.453125 -0.789062 10.390625 -0.59375 C 10.328125 -0.394531 10.222656 -0.257812 10.078125 -0.1875 C 9.835938 -0.0625 9.515625 0 9.109375 0 L 2.390625 0 C 1.515625 0 1.003906 -0.234375 0.859375 -0.703125 C 0.785156 -0.898438 0.75 -1.21875 0.75 -1.65625 L 0.75 -12.03125 C 0.75 -12.320312 0.753906 -12.535156 0.765625 -12.671875 C 0.785156 -12.816406 0.847656 -12.984375 0.953125 -13.171875 C 1.128906 -13.503906 1.613281 -13.671875 2.40625 -13.671875 C 3.28125 -13.671875 3.796875 -13.441406 3.953125 -12.984375 C 4.015625 -12.773438 4.046875 -12.453125 4.046875 -12.015625 Z M 4.046875 -2.765625 "/></g></g></g><g fill="#0098da" fill-opacity="1"><g transform="translate(170.229432, 348.929883)"><g><path d="M 8.640625 -12.703125 L 13.671875 -2.296875 C 13.890625 -1.867188 14 -1.550781 14 -1.34375 C 14 -0.894531 13.632812 -0.488281 12.90625 -0.125 C 12.488281 0.0820312 12.15625 0.1875 11.90625 0.1875 C 11.664062 0.1875 11.46875 0.128906 11.3125 0.015625 C 11.15625 -0.0976562 11.039062 -0.210938 10.96875 -0.328125 C 10.90625 -0.453125 10.8125 -0.640625 10.6875 -0.890625 L 9.71875 -2.90625 L 4.546875 -2.90625 L 3.578125 -0.890625 C 3.453125 -0.640625 3.351562 -0.457031 3.28125 -0.34375 C 3.21875 -0.238281 3.109375 -0.125 2.953125 0 C 2.796875 0.113281 2.597656 0.171875 2.359375 0.171875 C 2.117188 0.171875 1.785156 0.0625 1.359375 -0.15625 C 0.640625 -0.5 0.28125 -0.894531 0.28125 -1.34375 C 0.28125 -1.550781 0.382812 -1.867188 0.59375 -2.296875 L 5.640625 -12.71875 C 5.773438 -13.007812 5.976562 -13.238281 6.25 -13.40625 C 6.53125 -13.582031 6.828125 -13.671875 7.140625 -13.671875 C 7.816406 -13.671875 8.316406 -13.347656 8.640625 -12.703125 Z M 7.125 -8.234375 L 5.890625 -5.671875 L 8.375 -5.671875 Z M 7.125 -8.234375 "/></g></g></g><g fill="#0098da" fill-opacity="1"><g transform="translate(191.029031, 348.929883)"><g><path d="M 11.609375 -13.40625 C 12.210938 -12.988281 12.515625 -12.582031 12.515625 -12.1875 C 12.515625 -11.945312 12.375 -11.613281 12.09375 -11.1875 L 8.0625 -5.171875 L 8.0625 -1.609375 C 8.0625 -1.316406 8.050781 -1.097656 8.03125 -0.953125 C 8.007812 -0.816406 7.945312 -0.65625 7.84375 -0.46875 C 7.75 -0.28125 7.582031 -0.148438 7.34375 -0.078125 C 7.113281 -0.00390625 6.796875 0.03125 6.390625 0.03125 C 5.992188 0.03125 5.675781 -0.00390625 5.4375 -0.078125 C 5.207031 -0.148438 5.039062 -0.28125 4.9375 -0.46875 C 4.84375 -0.664062 4.785156 -0.832031 4.765625 -0.96875 C 4.742188 -1.113281 4.734375 -1.335938 4.734375 -1.640625 L 4.734375 -5.171875 L 0.703125 -11.1875 C 0.421875 -11.613281 0.28125 -11.945312 0.28125 -12.1875 C 0.28125 -12.582031 0.550781 -12.960938 1.09375 -13.328125 C 1.644531 -13.691406 2.035156 -13.875 2.265625 -13.875 C 2.503906 -13.875 2.691406 -13.828125 2.828125 -13.734375 C 3.046875 -13.597656 3.269531 -13.34375 3.5 -12.96875 L 6.40625 -8.34375 L 9.296875 -12.96875 C 9.523438 -13.34375 9.726562 -13.585938 9.90625 -13.703125 C 10.082031 -13.816406 10.285156 -13.875 10.515625 -13.875 C 10.742188 -13.875 11.109375 -13.71875 11.609375 -13.40625 Z M 11.609375 -13.40625 "/></g></g></g><g fill="#0098da" fill-opacity="1"><g transform="translate(210.355269, 348.929883)"><g><path d="M 4.046875 -3.296875 L 9.796875 -3.296875 C 10.078125 -3.296875 10.289062 -3.285156 10.4375 -3.265625 C 10.582031 -3.253906 10.75 -3.195312 10.9375 -3.09375 C 11.269531 -2.914062 11.4375 -2.429688 11.4375 -1.640625 C 11.4375 -0.765625 11.207031 -0.253906 10.75 -0.109375 C 10.53125 -0.0351562 10.207031 0 9.78125 0 L 2.390625 0 C 1.515625 0 1.003906 -0.234375 0.859375 -0.703125 C 0.785156 -0.898438 0.75 -1.21875 0.75 -1.65625 L 0.75 -12.03125 C 0.75 -12.664062 0.863281 -13.097656 1.09375 -13.328125 C 1.332031 -13.554688 1.78125 -13.671875 2.4375 -13.671875 L 9.796875 -13.671875 C 10.078125 -13.671875 10.289062 -13.660156 10.4375 -13.640625 C 10.582031 -13.628906 10.75 -13.570312 10.9375 -13.46875 C 11.269531 -13.289062 11.4375 -12.804688 11.4375 -12.015625 C 11.4375 -11.140625 11.207031 -10.628906 10.75 -10.484375 C 10.53125 -10.410156 10.207031 -10.375 9.78125 -10.375 L 4.046875 -10.375 L 4.046875 -8.484375 L 7.75 -8.484375 C 8.03125 -8.484375 8.238281 -8.472656 8.375 -8.453125 C 8.519531 -8.441406 8.6875 -8.382812 8.875 -8.28125 C 9.21875 -8.101562 9.390625 -7.617188 9.390625 -6.828125 C 9.390625 -5.953125 9.148438 -5.441406 8.671875 -5.296875 C 8.460938 -5.222656 8.140625 -5.1875 7.703125 -5.1875 L 4.046875 -5.1875 Z M 4.046875 -3.296875 "/></g></g></g><g fill="#0098da" fill-opacity="1"><g transform="translate(228.786316, 348.929883)"><g><path d="M 11.21875 -2.3125 C 11.40625 -1.863281 11.5 -1.539062 11.5 -1.34375 C 11.5 -0.875 11.109375 -0.476562 10.328125 -0.15625 C 9.929688 0.0195312 9.613281 0.109375 9.375 0.109375 C 9.132812 0.109375 8.9375 0.0507812 8.78125 -0.0625 C 8.625 -0.1875 8.507812 -0.304688 8.4375 -0.421875 C 8.3125 -0.660156 7.828125 -1.789062 6.984375 -3.8125 L 6.40625 -3.765625 L 4.046875 -3.765625 L 4.046875 -1.65625 C 4.046875 -1.375 4.035156 -1.160156 4.015625 -1.015625 C 4.003906 -0.867188 3.945312 -0.703125 3.84375 -0.515625 C 3.664062 -0.179688 3.179688 -0.015625 2.390625 -0.015625 C 1.515625 -0.015625 1.003906 -0.242188 0.859375 -0.703125 C 0.785156 -0.921875 0.75 -1.242188 0.75 -1.671875 L 0.75 -12.03125 C 0.75 -12.320312 0.753906 -12.535156 0.765625 -12.671875 C 0.785156 -12.816406 0.847656 -12.984375 0.953125 -13.171875 C 1.128906 -13.503906 1.613281 -13.671875 2.40625 -13.671875 L 6.4375 -13.671875 C 7.53125 -13.671875 8.59375 -13.273438 9.625 -12.484375 C 10.125 -12.097656 10.535156 -11.570312 10.859375 -10.90625 C 11.179688 -10.25 11.34375 -9.519531 11.34375 -8.71875 C 11.34375 -7.3125 10.875 -6.15625 9.9375 -5.25 C 10.21875 -4.582031 10.644531 -3.601562 11.21875 -2.3125 Z M 4.046875 -7.078125 L 6.4375 -7.078125 C 6.800781 -7.078125 7.160156 -7.210938 7.515625 -7.484375 C 7.878906 -7.753906 8.0625 -8.160156 8.0625 -8.703125 C 8.0625 -9.253906 7.878906 -9.671875 7.515625 -9.953125 C 7.160156 -10.234375 6.789062 -10.375 6.40625 -10.375 L 4.046875 -10.375 Z M 4.046875 -7.078125 "/></g></g></g></svg>